<svg width="280" height="40" viewBox="0 0 280 40" fill="none" xmlns="http://www.w3.org/2000/svg">
<path d="M8.81052 31.7768C5.63183 31.7768 2.59133 30.8785 0 28.9782L2.45313 25.0394C4.62985 26.456 6.91022 27.1815 8.84508 27.1815C9.98526 27.1815 10.5381 26.836 10.5381 26.1796V26.1105C10.5381 25.3158 9.467 25.0394 7.49758 24.4866C3.80062 23.5537 0.863777 22.2753 0.863777 18.5438V18.4747C0.863777 14.5013 4.07703 12.29 8.36136 12.29C11.1254 12.29 13.8895 13.0847 16.0663 14.4667L13.8204 18.6129C11.8856 17.5072 9.77796 16.8508 8.29226 16.8508C7.29028 16.8508 6.77201 17.2308 6.77201 17.7837V17.8528C6.77201 18.5783 7.87765 18.9238 9.81251 19.5112C13.5095 20.5132 16.4463 21.8261 16.4463 25.454V25.5231C16.4463 29.6347 13.3713 31.7768 8.81052 31.7768Z" fill="#262626"/>
<path d="M19.1645 10.9771V6.13994H25.9711V10.9771H19.1645ZM19.3027 31.3622V12.6701H25.8329V31.3622H19.3027Z" fill="#262626"/>
<path d="M29.5223 31.3622V12.6701H36.087V15.2269C37.2963 13.6721 39.0238 12.2555 41.6497 12.2555C44.1374 12.2555 46.0377 13.3611 47.0397 15.296C48.6636 13.3957 50.5293 12.2555 53.2934 12.2555C57.3013 12.2555 59.6854 14.7086 59.6854 19.0966V31.3622H53.1207V21.2042C53.1207 19.1311 52.1187 18.0601 50.5639 18.0601C49.0091 18.0601 47.8689 19.1311 47.8689 21.2042V31.3622H41.3387V21.2042C41.3387 19.1311 40.3022 18.0601 38.7474 18.0601C37.1926 18.0601 36.087 19.1311 36.087 21.2042V31.3622H29.5223Z" fill="#262626"/>
<path d="M63.0611 40V12.6701H69.6258V15.1578C70.9042 13.603 72.4936 12.2555 75.2922 12.2555C79.7147 12.2555 83.5845 15.9524 83.5845 21.9298V21.9989C83.5845 28.0799 79.7493 31.7768 75.3268 31.7768C72.4936 31.7768 70.8697 30.4984 69.6258 29.0819V40H63.0611ZM73.3228 26.2832C75.3959 26.2832 77.158 24.5557 77.158 22.0334V21.9643C77.158 19.4767 75.3959 17.7146 73.3228 17.7146C71.1806 17.7146 69.4876 19.4767 69.4876 21.9643V22.0334C69.4876 24.5211 71.1806 26.2832 73.3228 26.2832Z" fill="#262626"/>
<path d="M86.5828 31.3622V6.13994H93.113V31.3622H86.5828Z" fill="#262626"/>
<path d="M96.837 19.6149V14.7777H103.644V19.6149H96.837ZM96.9752 40V21.3079H103.505V40H96.9752Z" fill="#262626"/>
<path d="M107.367 31.3622V6.13994H113.898V31.3622H107.367Z" fill="#262626"/>
<path d="M126.881 31.8114C121.008 31.8114 116.861 27.8726 116.861 22.1025V22.0334C116.861 16.6089 120.766 12.2555 126.294 12.2555C132.72 12.2555 135.692 16.989 135.692 22.4826C135.692 22.8972 135.692 23.3809 135.657 23.8301H123.15C123.668 25.9032 125.119 26.9051 127.192 26.9051C128.816 26.9051 129.991 26.3523 131.338 25.0048L134.966 28.0108C133.17 30.3257 130.613 31.8114 126.881 31.8114ZM123.046 20.4786H129.576C129.334 18.4056 128.091 17.0926 126.294 17.0926C124.532 17.0926 123.426 18.4056 123.046 20.4786Z" fill="#262626"/>
<path d="M143.896 31.7768C140.337 31.7768 137.642 29.7038 137.642 26.0068V25.9377C137.642 22.0334 140.579 20.064 144.967 20.064C146.729 20.064 148.387 20.375 149.459 20.7896V20.4786C149.459 18.5092 148.249 17.4036 145.727 17.4036C143.758 17.4036 142.237 17.7837 140.544 18.4401L139.197 13.8448C141.304 12.9811 143.55 12.3937 146.764 12.3937C150.115 12.3937 152.395 13.1884 153.881 14.6741C155.298 16.0561 155.885 17.991 155.885 20.6168V31.3622H149.424V29.3928C148.076 30.8094 146.383 31.7768 143.896 31.7768ZM146.245 27.6653C148.18 27.6653 149.528 26.4905 149.528 24.5902V23.7264C148.837 23.45 147.904 23.2427 146.936 23.2427C145.001 23.2427 143.93 24.1411 143.93 25.5576V25.6267C143.93 26.9051 144.898 27.6653 146.245 27.6653Z" fill="#262626"/>
<path d="M159.224 31.3622V12.6701H165.788V16.4362C166.86 13.9139 168.553 12.2209 171.697 12.3591V19.2693H171.144C167.689 19.2693 165.788 21.2042 165.788 25.5231V31.3622H159.224Z" fill="#262626"/>
<path d="M174.002 31.3622V12.6701H180.567V15.296C181.776 13.7412 183.504 12.2555 186.164 12.2555C190.172 12.2555 192.522 14.8468 192.522 19.1311V31.3622H185.992V21.2388C185.992 19.1657 184.955 18.0601 183.331 18.0601C181.707 18.0601 180.567 19.1657 180.567 21.2388V31.3622H174.002Z" fill="#262626"/>
<g clip-path="url(#clip0_112_29866)">
<path d="M205.443 37.8438C205.443 37.8438 205.323 37.7958 205.083 37.6999C204.843 37.6279 204.58 37.556 204.292 37.484C204.028 37.4121 203.824 37.3761 203.68 37.3761C203.297 37.2802 203.021 37.0643 202.853 36.7285C202.685 36.4167 202.649 36.069 202.745 35.6852C202.841 35.5893 202.913 35.3854 202.961 35.0736C203.009 34.7618 203.033 34.51 203.033 34.3181C203.129 34.1263 203.189 33.9943 203.213 33.9224C203.237 33.8265 203.297 33.5866 203.392 33.2029C203.464 32.7951 203.584 32.2315 203.752 31.512C203.944 30.7685 204.148 29.977 204.364 29.1375C204.604 28.2981 204.831 27.4946 205.047 26.7271C205.263 25.9596 205.455 25.3121 205.623 24.7844C205.815 24.2568 205.947 23.9569 206.019 23.885C206.019 23.885 206.019 23.849 206.019 23.7771C206.019 23.6811 206.019 23.5852 206.019 23.4893C206.019 23.4893 206.031 23.3813 206.055 23.1655C206.103 22.9256 206.223 22.6618 206.414 22.374C206.51 22.1102 206.594 21.8224 206.666 21.5106C206.738 21.1988 206.774 20.9949 206.774 20.899C206.87 20.779 207.002 20.4912 207.17 20.0355C207.362 19.5558 207.542 19.0882 207.71 18.6325C207.854 18.2487 208.009 17.841 208.177 17.4093C208.369 16.9775 208.525 16.6058 208.645 16.294C208.789 15.9822 208.861 15.8263 208.861 15.8263C208.861 15.7304 208.861 15.6824 208.861 15.6824C208.861 15.6584 208.861 15.6464 208.861 15.6464C208.957 15.5505 209.185 15.0708 209.544 14.2074C209.928 13.32 210.444 12.1807 211.091 10.7896C211.187 10.5977 211.331 10.2979 211.523 9.89021C211.715 9.45849 211.811 9.19467 211.811 9.09873C212.171 8.73897 212.518 8.61905 212.854 8.73897C213.214 8.83491 213.526 9.03877 213.79 9.35057C214.077 9.66236 214.281 9.95017 214.401 10.214L214.761 10.7896L213.43 13.3799C213.046 14.0515 212.71 14.6631 212.423 15.2147C212.159 15.7663 212.027 16.0901 212.027 16.1861C212.027 16.1861 211.967 16.33 211.847 16.6178C211.751 16.9056 211.631 17.2773 211.487 17.733C211.343 18.1648 211.199 18.5965 211.055 19.0282C210.792 19.7717 210.54 20.3953 210.3 20.899C210.06 21.3786 209.94 21.6665 209.94 21.7624C209.94 21.7144 210.18 21.6784 210.66 21.6545C211.163 21.6305 211.787 21.6185 212.53 21.6185C213.274 21.6185 214.029 21.6185 214.797 21.6185C215.588 21.5945 216.296 21.5825 216.92 21.5825C217.543 21.5585 217.975 21.5226 218.215 21.4746L220.085 21.2947L221.093 18.0928C221.285 17.4213 221.536 16.6058 221.848 15.6464C222.16 14.6871 222.436 13.8716 222.676 13.2C223.059 12.0968 223.467 11.3293 223.899 10.8975C224.331 10.4418 224.69 10.214 224.978 10.214C225.05 10.214 225.182 10.286 225.374 10.4299C225.59 10.5498 225.806 10.6937 226.022 10.8616C226.237 11.0295 226.369 11.1854 226.417 11.3293C226.705 11.5931 226.837 11.8929 226.813 12.2287C226.813 12.5644 226.621 13.0082 226.237 13.5598C225.854 14.2074 225.53 14.9149 225.266 15.6824C225.026 16.4259 224.81 17.0375 224.618 17.5172C224.618 17.805 224.582 18.0448 224.511 18.2367C224.439 18.4046 224.355 18.5365 224.259 18.6325C224.211 18.6804 224.115 18.8603 223.971 19.1721C223.827 19.4839 223.695 19.7957 223.575 20.1075C223.455 20.4193 223.395 20.6112 223.395 20.6831C223.395 20.851 223.359 21.0549 223.287 21.2947C223.215 21.5345 223.131 21.7024 223.036 21.7984C222.988 21.9423 222.88 22.302 222.712 22.8777C222.544 23.4533 222.352 24.1368 222.136 24.9283C221.92 25.6958 221.692 26.4513 221.453 27.1948C221.213 27.9143 220.997 28.5139 220.805 28.9936C220.805 29.1615 220.745 29.3774 220.625 29.6412C220.505 29.881 220.445 30.0969 220.445 30.2888C220.349 30.5766 220.229 30.9364 220.085 31.3681C219.942 31.7998 219.87 32.0756 219.87 32.1955C219.75 32.7472 219.618 33.3827 219.474 34.1023C219.354 34.8218 219.246 35.4574 219.15 36.009C219.078 36.5607 219.042 36.8724 219.042 36.9444C218.419 37.0164 217.951 36.9324 217.639 36.6926C217.327 36.4527 217.039 36.2848 216.776 36.1889C216.32 35.9251 216.044 35.5893 215.948 35.1816C215.876 34.7978 215.972 34.3301 216.236 33.7785C216.356 33.5866 216.5 33.1189 216.668 32.3754C216.86 31.6079 217.051 30.8524 217.243 30.1089C217.387 29.7491 217.543 29.2934 217.711 28.7418C217.879 28.1902 218.035 27.6505 218.179 27.1229C218.347 26.5712 218.491 26.1035 218.61 25.7198C218.73 25.336 218.814 25.1202 218.862 25.0722C218.862 24.9763 218.862 24.8923 218.862 24.8204C218.862 24.7484 218.862 24.7125 218.862 24.7125C218.814 24.6645 218.574 24.6285 218.143 24.6045C217.711 24.5566 217.159 24.5446 216.488 24.5685C215.84 24.5685 215.133 24.5925 214.365 24.6405C213.598 24.6645 212.866 24.7244 212.171 24.8204C211.907 24.8204 211.523 24.8204 211.019 24.8204C210.54 24.8204 210.204 24.8204 210.012 24.8204C209.748 24.8204 209.52 24.8204 209.329 24.8204C209.161 24.8204 209.077 24.8204 209.077 24.8204C209.029 24.8923 208.933 25.1322 208.789 25.5399C208.669 25.9476 208.513 26.4393 208.321 27.0149C208.153 27.5906 207.973 28.1782 207.782 28.7778C207.614 29.3774 207.458 29.929 207.314 30.4327C207.194 30.9124 207.11 31.2601 207.062 31.476C206.966 31.9077 206.834 32.4474 206.666 33.0949C206.522 33.7425 206.354 34.4021 206.163 35.0736C205.995 35.7692 205.839 36.3688 205.695 36.8724C205.575 37.3761 205.491 37.6999 205.443 37.8438ZM232.685 34.498C232.445 34.2582 232.253 33.9344 232.109 33.5266C231.966 33.0949 231.822 32.6033 231.678 32.0516C231.63 31.8597 231.606 31.6439 231.606 31.404C231.63 31.1642 231.63 30.9723 231.606 30.8284C231.534 30.9963 231.414 31.2122 231.246 31.476C231.102 31.7398 230.958 31.9317 230.814 32.0516C230.718 32.1476 230.502 32.3394 230.167 32.6272C229.831 32.8911 229.495 33.1069 229.159 33.2748C228.368 33.7785 227.66 34.0183 227.037 33.9943C226.437 33.9464 225.909 33.6346 225.454 33.059C225.07 32.7472 224.758 32.3514 224.518 31.8717C224.279 31.3921 224.231 30.8164 224.375 30.1449C224.422 29.3054 224.542 28.49 224.734 27.6985C224.926 26.883 225.322 25.8037 225.921 24.4606C226.425 23.4773 226.809 22.7098 227.073 22.1581C227.337 21.6065 227.504 21.2827 227.576 21.1868C227.936 21.0669 228.38 21.0788 228.908 21.2227C229.435 21.3427 229.723 21.5705 229.771 21.9063C229.915 22.1461 229.915 22.6018 229.771 23.2734C229.627 23.921 229.339 24.6645 228.908 25.5039C228.572 26.3194 228.248 27.1109 227.936 27.8784C227.648 28.6459 227.468 29.2934 227.397 29.8211C227.349 30.3487 227.492 30.6725 227.828 30.7924C228.044 30.9124 228.356 30.9004 228.764 30.7565C229.195 30.6126 229.699 30.1809 230.275 29.4613C230.85 28.7418 231.462 27.6025 232.109 26.0436C232.301 25.5639 232.445 25.1442 232.541 24.7844C232.637 24.4007 232.697 23.9809 232.721 23.5252C232.673 23.2374 232.745 22.9376 232.937 22.6258C233.153 22.314 233.405 22.0742 233.692 21.9063C233.788 21.7864 233.92 21.6784 234.088 21.5825C234.256 21.4626 234.364 21.4626 234.412 21.5825L234.988 21.5465C235.083 21.5226 235.191 21.6185 235.311 21.8343C235.431 22.0502 235.551 22.2061 235.671 22.302C235.935 22.5179 236.055 22.9856 236.031 23.7051C236.007 24.4246 235.719 25.432 235.167 26.7271C234.712 27.7105 234.4 28.454 234.232 28.9577C234.088 29.4613 234.004 29.953 233.98 30.4327C233.98 30.8644 234.016 31.2362 234.088 31.548C234.16 31.8358 234.376 32.1356 234.736 32.4474C235 32.6152 235.143 32.9031 235.167 33.3108C235.215 33.6945 235.227 34.0303 235.203 34.3181C235.155 34.534 234.964 34.6779 234.628 34.7498C234.316 34.8458 233.968 34.8698 233.584 34.8218C233.225 34.7738 232.925 34.6659 232.685 34.498ZM241.8 34.3541C241.32 34.3061 240.936 34.1862 240.648 33.9943C240.385 33.7785 240.181 33.5147 240.037 33.2029C239.845 32.987 239.725 32.8191 239.677 32.6992C239.653 32.5793 239.653 32.4713 239.677 32.3754C239.797 32.3754 239.905 32.3754 240.001 32.3754C240.097 32.3514 240.157 32.3035 240.181 32.2315C240.181 32.1595 240.217 32.1116 240.289 32.0876C240.385 32.0636 240.481 32.0636 240.576 32.0876C241.032 32.1116 241.584 31.9557 242.231 31.6199C242.903 31.2841 243.634 30.8164 244.426 30.2168C245.217 29.5932 246.009 28.9217 246.8 28.2022C247.424 27.3867 247.856 26.7871 248.096 26.4033C248.359 26.0196 248.491 25.7318 248.491 25.5399C248.515 25.324 248.467 25.1082 248.347 24.8923C248.251 24.7005 248.024 24.6045 247.664 24.6045C247.304 24.6045 246.752 24.8444 246.009 25.324C244.978 25.9716 244.15 26.5712 243.527 27.1229C242.903 27.6745 242.327 28.2981 241.8 28.9936C241.608 29.2335 241.392 29.4973 241.152 29.7851C240.936 30.0489 240.744 30.2768 240.576 30.4687C240.433 30.6605 240.361 30.7565 240.361 30.7565C240.361 30.8524 240.217 30.9723 239.929 31.1162C239.665 31.2601 239.437 31.3321 239.245 31.3321C239.149 31.2841 239.018 31.2002 238.85 31.0803C238.706 30.9364 238.61 30.7565 238.562 30.5406C238.346 30.3727 238.166 30.2288 238.022 30.1089C237.878 29.965 237.806 29.7371 237.806 29.4253C237.806 29.2335 237.83 28.9936 237.878 28.7058C237.95 28.418 238.046 28.0463 238.166 27.5906C238.31 26.967 238.466 26.3194 238.634 25.6478C238.802 24.9523 238.958 24.3647 239.101 23.885C239.269 23.3813 239.389 23.1055 239.461 23.0575C239.461 23.0575 239.509 22.9496 239.605 22.7338C239.701 22.5179 239.749 22.2661 239.749 21.9783C239.797 21.6904 239.869 21.4386 239.965 21.2227C240.085 21.0069 240.145 20.851 240.145 20.7551C240.241 20.6831 240.385 20.3953 240.576 19.8916C240.768 19.388 241.008 18.7284 241.296 17.9129C241.296 17.841 241.38 17.6131 241.548 17.2294C241.716 16.8216 241.92 16.354 242.159 15.8263C242.399 15.2747 242.639 14.711 242.879 14.1354C243.143 13.5358 243.359 13.0082 243.527 12.5525C243.814 12.1447 244.054 11.737 244.246 11.3293C244.462 10.8975 244.654 10.6457 244.822 10.5738C244.942 10.5498 245.145 10.5977 245.433 10.7177C245.745 10.8376 246.057 10.9935 246.369 11.1854C246.68 11.3772 246.896 11.5691 247.016 11.761C247.088 11.8809 247.124 12.0008 247.124 12.1207C247.148 12.2407 247.1 12.4445 246.98 12.7323C246.86 12.9962 246.656 13.4399 246.369 14.0635C246.081 14.6631 245.673 15.5145 245.145 16.6178C244.474 18.0568 243.946 19.256 243.563 20.2154C243.203 21.1748 242.903 22.0022 242.663 22.6978C242.447 23.3933 242.219 24.0529 241.98 24.6765L241.8 25.468L242.735 24.4246C242.975 24.1848 243.227 23.9569 243.491 23.7411C243.754 23.5252 244.042 23.3094 244.354 23.0935C244.546 22.9496 244.798 22.8057 245.11 22.6618C245.445 22.4939 245.769 22.35 246.081 22.2301C246.393 22.1102 246.621 22.0382 246.764 22.0142C246.836 21.9902 247.076 21.9423 247.484 21.8703C247.916 21.7744 248.335 21.7264 248.743 21.7264C249.271 21.7264 249.726 21.9183 250.11 22.302C250.518 22.6618 250.878 23.1055 251.19 23.6332C251.453 24.1368 251.549 24.7844 251.477 25.5759C251.405 26.3434 251.201 27.0029 250.866 27.5546C250.746 27.6505 250.626 27.7824 250.506 27.9503C250.386 28.0942 250.326 28.2141 250.326 28.3101C250.302 28.478 250.086 28.8257 249.678 29.3534C249.271 29.8571 248.863 30.3367 248.455 30.7924C248.024 31.2481 247.496 31.7038 246.872 32.1595C246.249 32.5913 245.625 32.987 245.002 33.3468C244.402 33.6825 243.886 33.9224 243.455 34.0663C243.263 34.0903 242.987 34.1382 242.627 34.2102C242.267 34.2582 241.992 34.3061 241.8 34.3541Z" fill="url(#paint0_linear_112_29866)"/>
</g>
<defs>
<linearGradient id="paint0_linear_112_29866" x1="199.939" y1="23.07" x2="285.515" y2="23.07" gradientUnits="userSpaceOnUse">
<stop stop-color="#0041C2"/>
<stop offset="0.754808" stop-color="#1A9CCB"/>
</linearGradient>
<clipPath id="clip0_112_29866">
<rect x="199.939" y="6.13994" width="68.7782" height="33.8601" rx="3.17438" fill="white"/>
</clipPath>
</defs>
</svg>
